<svg width="74" height="74" viewBox="0 0 74 74" fill="none" xmlns="http://www.w3.org/2000/svg">
<path d="M37.1799 73.7401C57.515 73.7401 73.9999 57.2552 73.9999 36.9201C73.9999 16.585 57.515 0.100098 37.1799 0.100098C16.8447 0.100098 0.359863 16.585 0.359863 36.9201C0.359863 57.2552 16.8447 73.7401 37.1799 73.7401Z" fill="url(#paint0_linear_6_66)"/>
<path d="M19.7399 47.5801C19.8966 47.4212 20.0835 47.2952 20.2895 47.2093C20.4956 47.1235 20.7167 47.0795 20.9399 47.0801H62.1699C62.3357 47.0824 62.4971 47.1331 62.6345 47.226C62.7718 47.319 62.8789 47.45 62.9427 47.6031C63.0065 47.7561 63.0241 47.9245 62.9934 48.0874C62.9627 48.2503 62.885 48.4007 62.7699 48.5201L54.6199 56.6701C54.3033 56.984 53.8756 57.1601 53.4299 57.1601H12.1999C12.032 57.1625 11.8672 57.1146 11.7268 57.0225C11.5864 56.9303 11.4769 56.7982 11.4123 56.6432C11.3477 56.4882 11.331 56.3174 11.3645 56.1529C11.3979 55.9883 11.4799 55.8376 11.5999 55.7201L19.7399 47.5801Z" fill="white"/>
<path d="M19.7399 17.1702C20.0597 16.8538 20.4901 16.6745 20.9399 16.6702H62.1699C62.3357 16.6725 62.4971 16.7232 62.6345 16.8161C62.7718 16.9091 62.8789 17.0401 62.9427 17.1932C63.0065 17.3462 63.0241 17.5146 62.9934 17.6775C62.9627 17.8404 62.885 17.9908 62.7699 18.1102L54.6199 26.2602C54.3033 26.574 53.8756 26.7502 53.4299 26.7502H12.1999C12.032 26.7526 11.8672 26.7047 11.7268 26.6125C11.5864 26.5204 11.4769 26.3883 11.4123 26.2333C11.3477 26.0783 11.331 25.9075 11.3645 25.743C11.3979 25.5784 11.4799 25.4277 11.5999 25.3102L19.7399 17.1702Z" fill="white"/>
<path d="M54.6199 32.2701C54.3033 31.9562 53.8756 31.7801 53.4299 31.7801H12.1999C12.032 31.7777 11.8672 31.8256 11.7268 31.9177C11.5864 32.0099 11.4769 32.142 11.4123 32.297C11.3477 32.452 11.331 32.6228 11.3645 32.7873C11.3979 32.9519 11.4799 33.1026 11.5999 33.2201L19.7399 41.3701C20.0601 41.6846 20.4911 41.8606 20.9399 41.8601H62.1699C62.3357 41.8578 62.4971 41.8071 62.6345 41.7142C62.7718 41.6212 62.8789 41.4902 62.9427 41.3371C63.0065 41.1841 63.0241 41.0157 62.9934 40.8528C62.9627 40.6899 62.885 40.5395 62.7699 40.4201L54.6199 32.2701Z" fill="white"/>
<defs>
<linearGradient id="paint0_linear_6_66" x1="69.4599" y1="4.0101" x2="9.59987" y2="65.0501" gradientUnits="userSpaceOnUse">
<stop stop-color="#00FFA3"/>
<stop offset="1" stop-color="#DC1FFF"/>
</linearGradient>
</defs>
</svg>
