<svg width="85" height="84" viewBox="0 0 85 84" fill="none" xmlns="http://www.w3.org/2000/svg">
<path d="M78.6436 46.7519C81.8633 26.6733 68.1964 7.78627 48.1178 4.56661C28.0392 1.34694 9.15218 15.0138 5.93251 35.0924C2.71284 55.1711 16.3797 74.0581 36.4583 77.2777C56.537 80.4974 75.424 66.8305 78.6436 46.7519Z" fill="url(#paint0_linear_6_75)"/>
<path d="M60.5101 19.5798H68.0001L52.4601 34.9298C49.7496 37.598 46.0986 39.0935 42.2951 39.0935C38.4916 39.0935 34.8407 37.598 32.1301 34.9298L16.6201 19.5798H24.0701L35.8501 31.2298C37.5648 32.9251 39.8789 33.8758 42.2901 33.8758C44.7014 33.8758 47.0154 32.9251 48.7301 31.2298L60.5101 19.5798Z" fill="white"/>
<path d="M24 62.2597H16.51L32.12 46.8197C34.828 44.1467 38.48 42.6479 42.285 42.6479C46.0901 42.6479 49.742 44.1467 52.45 46.8197L68.05 62.2597H60.61L48.73 50.4997C47.014 48.8069 44.7005 47.8578 42.29 47.8578C39.8795 47.8578 37.566 48.8069 35.85 50.4997L24 62.2597Z" fill="white"/>
<defs>
<linearGradient id="paint0_linear_6_75" x1="6.59905" y1="84.4226" x2="54.7265" y2="-13.3918" gradientUnits="userSpaceOnUse">
<stop stop-color="#7546FE"/>
<stop offset="1" stop-color="#AD8BFF"/>
</linearGradient>
</defs>
</svg>
