<svg width="75" height="74" viewBox="0 0 75 74" fill="none" xmlns="http://www.w3.org/2000/svg">
<path d="M73.4998 45.8301C71.7375 52.8932 67.9206 59.2752 62.5315 64.1692C57.1425 69.0632 50.4233 72.2495 43.2236 73.3251C36.0239 74.4007 28.6669 73.3174 22.0828 70.2122C15.4986 67.107 9.98307 62.1192 6.23341 55.8796C2.48375 49.6399 0.668378 42.4286 1.01681 35.1573C1.36524 27.886 3.86184 20.8812 8.19094 15.0287C12.52 9.17621 18.4873 4.73869 25.3381 2.27724C32.189 -0.184208 39.6159 -0.559068 46.6798 1.20006C56.1529 3.56463 64.2995 9.59406 69.3287 17.963C74.358 26.3319 75.8582 36.3554 73.4998 45.8301V45.8301Z" fill="url(#paint0_linear_6_59)"/>
<path d="M53.9996 31.6702C54.7296 26.7702 50.9997 24.1402 45.8997 22.3802L47.5496 15.7502L43.5496 14.7502L41.9196 21.2002C40.8596 20.9402 39.7696 20.6902 38.6796 20.4402L40.3097 13.9302L36.3097 12.9302L34.6497 19.5602L31.9996 19.0002L26.4296 17.6102L25.3496 21.9302C25.3496 21.9302 28.3496 22.6202 28.2896 22.6602C28.8482 22.728 29.3579 23.0121 29.7094 23.4514C30.0608 23.8908 30.2261 24.4504 30.1696 25.0102L28.2796 32.6002L25.6796 43.1202C25.6247 43.3089 25.5328 43.4849 25.4091 43.6377C25.2854 43.7905 25.1326 43.9172 24.9594 44.0103C24.7862 44.1034 24.5963 44.1611 24.4006 44.1799C24.2049 44.1988 24.0074 44.1785 23.8196 44.1202C23.8196 44.1802 20.8896 43.3902 20.8896 43.3902L18.8896 48.0102L24.1496 49.3202L26.9996 50.0002L25.3296 56.7102L29.3297 57.7102L30.9996 51.1002C32.0996 51.4002 33.1697 51.6802 34.2197 51.9402L32.5696 58.5502L36.5696 59.5502L38.2397 52.8502C45.1297 54.1502 50.3097 53.6202 52.4897 47.4002C54.2497 42.4002 52.3996 39.4802 48.7796 37.6002C51.4996 37.0002 53.4896 35.2602 53.9996 31.6702ZM44.7896 44.6202C43.5396 49.6202 35.0896 46.9202 32.3496 46.2402L34.5696 37.3502C37.3096 38.0302 46.0896 39.3502 44.7896 44.6202V44.6202ZM45.9996 31.6002C44.8596 36.1602 37.8296 33.8402 35.5496 33.2802L37.5496 25.2102C39.8796 25.7802 47.2196 26.8402 45.9996 31.6002Z" fill="white"/>
<defs>
<linearGradient id="paint0_linear_6_59" x1="-10.8039" y1="8.57543" x2="93.3636" y2="40.5969" gradientUnits="userSpaceOnUse">
<stop stop-color="#7546FE"/>
<stop offset="1" stop-color="#AD8BFF"/>
</linearGradient>
</defs>
</svg>
