<svg width="74" height="75" viewBox="0 0 74 75" fill="none" xmlns="http://www.w3.org/2000/svg">
<path d="M36.79 0.899915C44.0736 0.89398 51.1953 3.04839 57.2543 7.09061C63.3132 11.1328 68.0372 16.8813 70.8286 23.6087C73.62 30.3362 74.3535 37.7404 72.9362 44.8847C71.5188 52.0291 68.0145 58.5926 62.8663 63.745C57.7181 68.8973 51.1575 72.4071 44.0143 73.8302C36.8711 75.2534 29.4663 74.526 22.7365 71.74C16.0068 68.9541 10.2545 64.2348 6.20738 58.1791C2.16022 52.1235 2.41763e-06 45.0035 0 37.7199C-3.23965e-06 27.9598 3.87512 18.5991 10.7737 11.6948C17.6723 4.79062 27.0299 0.907867 36.79 0.899915" fill="url(#paint0_linear_7_86)"/>
<path d="M27.26 33.7599L32.83 28.2099L34.01 27.0299L36.8 24.2499L46.28 33.7599L51.81 28.2099L36.8 13.1699L21.74 28.2099L27.26 33.7599Z" fill="white"/>
<path d="M36.8006 32.1643L31.2568 37.708L36.8006 43.2517L42.3443 37.708L36.8006 32.1643Z" fill="white"/>
<path d="M46.28 41.6899L36.79 51.1799L33.46 47.8399L32.85 47.2299L27.26 41.6899L21.74 47.2099L36.8 62.2399L51.81 47.2099L46.28 41.6899Z" fill="white"/>
<path d="M17.7783 32.1804L12.2346 37.7241L17.7783 43.2678L23.3221 37.7241L17.7783 32.1804Z" fill="white"/>
<path d="M55.7854 32.1733L50.2417 37.717L55.7854 43.2608L61.3291 37.717L55.7854 32.1733Z" fill="white"/>
<defs>
<linearGradient id="paint0_linear_7_86" x1="-11.7824" y1="9.3685" x2="92.4182" y2="41.4019" gradientUnits="userSpaceOnUse">
<stop stop-color="#7546FE"/>
<stop offset="1" stop-color="#AD8BFF"/>
</linearGradient>
</defs>
</svg>
