<svg width="74" height="74" viewBox="0 0 74 74" fill="none" xmlns="http://www.w3.org/2000/svg">
<path d="M36.82 0.100099C44.1023 0.100099 51.2211 2.25955 57.2761 6.30539C63.3311 10.3512 68.0504 16.1017 70.8372 22.8297C73.6241 29.5577 74.3532 36.9609 72.9325 44.1033C71.5118 51.2457 68.005 57.8064 62.8557 62.9558C57.7063 68.1051 51.1456 71.6119 44.0032 73.0326C36.8608 74.4533 29.4576 73.7242 22.7296 70.9373C16.0016 68.1505 10.2511 63.4312 6.20529 57.3762C2.15946 51.3212 1.35882e-06 44.2024 1.35882e-06 36.9201C-0.0013125 32.0845 0.950168 27.2959 2.80008 22.8281C4.64999 18.3603 7.36209 14.3008 10.7814 10.8815C14.2007 7.46218 18.2602 4.75009 22.728 2.90018C27.1958 1.05027 31.9844 0.0987852 36.82 0.100099" fill="url(#paint0_linear_6_13)"/>
<path d="M41.37 32.0002V26.5302H53.94V18.1902H19.79V26.5302H32.31V32.0002C22.13 32.4602 14.48 34.4802 14.48 36.9002C14.48 39.3202 22.14 41.3302 32.31 41.8002V59.3502H41.37V41.8102C51.53 41.3402 59.17 39.3202 59.17 36.9102C59.17 34.5002 51.53 32.4802 41.37 32.0102M41.37 40.3202C41.12 40.3202 39.8 40.4102 36.88 40.4102C34.54 40.4102 32.88 40.3502 32.32 40.3202C23.32 39.9202 16.61 38.3202 16.61 36.4802C16.61 34.6402 23.32 33.0502 32.32 32.6502V38.7602C32.91 38.7602 34.59 38.9002 36.92 38.9002C39.71 38.9002 41.11 38.7902 41.37 38.7602V32.6502C50.37 33.0502 57.05 34.6502 57.05 36.4802C57.05 38.3102 50.35 39.9202 41.37 40.3202" fill="white"/>
<defs>
<linearGradient id="paint0_linear_6_13" x1="-11.7824" y1="8.5687" x2="92.4182" y2="40.6021" gradientUnits="userSpaceOnUse">
<stop stop-color="#7546FE"/>
<stop offset="1" stop-color="#AD8BFF"/>
</linearGradient>
</defs>
</svg>
