<svg width="75" height="74" viewBox="0 0 75 74" fill="none" xmlns="http://www.w3.org/2000/svg">
<path d="M37.52 73.7401C44.8023 73.7401 51.9211 71.5807 57.9761 67.5348C64.0311 63.489 68.7505 57.7385 71.5373 51.0105C74.3241 44.2825 75.0533 36.8793 73.6326 29.7369C72.2118 22.5945 68.7051 16.0338 63.5557 10.8844C58.4063 5.73507 51.8456 2.22831 44.7033 0.8076C37.5609 -0.613108 30.1576 0.116051 23.4296 2.90287C16.7017 5.68969 10.9512 10.409 6.90533 16.464C2.85949 22.519 0.700038 29.6378 0.700038 36.9201C0.689492 41.7583 1.63467 46.551 3.48131 51.023C5.32796 55.495 8.03969 59.5581 11.4608 62.9793C14.882 66.4005 18.9452 69.1122 23.4172 70.9588C27.8891 72.8055 32.6818 73.7507 37.52 73.7401V73.7401Z" fill="url(#paint0_linear_6_26)"/>
<path d="M47.6501 42.75C47.6501 37.38 44.4301 35.54 37.9801 34.75C33.3801 34.13 32.4601 32.91 32.4601 30.75C32.4601 28.59 34.0001 27.22 37.0601 27.22C39.8301 27.22 41.3601 28.14 42.1301 30.44C42.2079 30.6626 42.3524 30.8558 42.5438 30.9936C42.7352 31.1313 42.9643 31.2069 43.2001 31.21H45.6601C45.8042 31.2206 45.9488 31.1999 46.0841 31.1492C46.2195 31.0986 46.3422 31.0192 46.4439 30.9165C46.5456 30.8139 46.6238 30.6904 46.6732 30.5547C46.7226 30.4189 46.742 30.274 46.7301 30.13V30C46.4356 28.337 45.5991 26.8181 44.3509 25.6803C43.1028 24.5425 41.5132 23.8497 39.8301 23.71V20C39.8301 19.38 39.3701 18.92 38.6001 18.77H36.3001C35.6901 18.77 35.2301 19.23 35.0801 20V23.53C30.4701 24.14 27.5601 27.21 27.5601 31.05C27.5601 36.11 30.6201 38.05 37.0701 38.87C41.3601 39.64 42.7501 40.56 42.7501 43.01C42.7501 45.46 40.6001 47.15 37.6801 47.15C33.6801 47.15 32.3101 45.47 31.8501 43.15C31.806 42.8964 31.6753 42.6659 31.4801 42.4981C31.2849 42.3303 31.0374 42.2355 30.7801 42.23H28.1701C28.0269 42.2196 27.8831 42.2401 27.7486 42.2902C27.614 42.3403 27.4918 42.4188 27.3903 42.5203C27.2888 42.6218 27.2103 42.744 27.1602 42.8785C27.1102 43.0131 27.0896 43.1568 27.1001 43.3V43.46C27.7101 47.29 30.1601 50.05 35.2301 50.82V54.5C35.2301 55.12 35.6901 55.58 36.4501 55.73H38.7501C39.3701 55.73 39.8301 55.27 39.9801 54.5V50.88C44.5801 50.11 47.6501 46.88 47.6501 42.75V42.75Z" fill="white"/>
<path d="M29.7001 58.8602C25.3034 57.2236 21.5123 54.2815 18.8354 50.4287C16.1586 46.5759 14.7239 41.9967 14.7239 37.3052C14.7239 32.6138 16.1586 28.0345 18.8354 24.1817C21.5123 20.329 25.3034 17.3869 29.7001 15.7502C29.9941 15.6206 30.2406 15.4027 30.4055 15.1268C30.5703 14.8509 30.6453 14.5306 30.6201 14.2102V12.0602C30.6405 11.7799 30.5585 11.5017 30.3893 11.2774C30.2201 11.053 29.9752 10.8976 29.7001 10.8402C29.4826 10.8212 29.2648 10.8739 29.0801 10.9902C23.4929 12.7645 18.6154 16.271 15.154 21.0021C11.6925 25.7331 9.82666 31.4431 9.82666 37.3052C9.82666 43.1674 11.6925 48.8773 15.154 53.6084C18.6154 58.3394 23.4929 61.846 29.0801 63.6202C29.2086 63.6945 29.353 63.7373 29.5013 63.745C29.6496 63.7528 29.7976 63.7253 29.9332 63.6648C30.0688 63.6043 30.1882 63.5125 30.2815 63.397C30.3748 63.2815 30.4394 63.1455 30.4701 63.0002C30.6201 62.8502 30.6201 62.7002 30.6201 62.3902V60.2402C30.5743 59.9578 30.4686 59.6884 30.3098 59.4504C30.1511 59.2123 29.9432 59.0111 29.7001 58.8602ZM45.9401 11.0002C45.8129 10.9257 45.6699 10.8825 45.5228 10.8742C45.3757 10.8658 45.2287 10.8925 45.0939 10.952C44.9592 11.0116 44.8405 11.1024 44.7477 11.2168C44.6548 11.3312 44.5905 11.4661 44.5601 11.6102C44.4001 11.7702 44.4001 11.9202 44.4001 12.2302V14.3702C44.4229 14.6808 44.518 14.9818 44.6777 15.2492C44.8374 15.5165 45.0574 15.7429 45.3201 15.9102C49.7109 17.5486 53.4965 20.4893 56.1699 24.3385C58.8434 28.1877 60.2772 32.7617 60.2794 37.4483C60.2816 42.1349 58.852 46.7102 56.1821 50.5619C53.5122 54.4136 49.7294 57.3578 45.3401 59.0002C45.046 59.1299 44.7995 59.3477 44.6346 59.6236C44.4698 59.8995 44.3948 60.2198 44.4201 60.5402V62.6802C44.3992 62.9617 44.4809 63.2413 44.6499 63.4673C44.819 63.6934 45.0641 63.8507 45.3401 63.9102C45.5594 63.9347 45.78 63.8778 45.9601 63.7502C51.5354 61.9448 56.3951 58.4188 59.8412 53.6787C63.2873 48.9386 65.1425 43.2283 65.1402 37.368C65.138 31.5076 63.2785 25.7987 59.8288 21.0612C56.3792 16.3237 51.5168 12.8014 45.9401 11.0002V11.0002Z" fill="white"/>
<defs>
<linearGradient id="paint0_linear_6_26" x1="-11.0825" y1="8.56871" x2="93.1183" y2="40.6022" gradientUnits="userSpaceOnUse">
<stop stop-color="#7546FE"/>
<stop offset="1" stop-color="#AD8BFF"/>
</linearGradient>
</defs>
</svg>
