<svg width="74" height="74" viewBox="0 0 74 74" fill="none" xmlns="http://www.w3.org/2000/svg">
<path d="M36.8801 0.100099C44.1624 0.100099 51.2811 2.25955 57.3362 6.30539C63.3912 10.3512 68.1105 16.1017 70.8973 22.8297C73.6841 29.5577 74.4133 36.9609 72.9926 44.1033C71.5719 51.2457 68.0651 57.8064 62.9157 62.9558C57.7664 68.1051 51.2057 71.6119 44.0633 73.0326C36.9209 74.4533 29.5176 73.7242 22.7897 70.9373C16.0617 68.1505 10.3112 63.4312 6.26535 57.3762C2.21952 51.3212 0.06006 44.2024 0.06006 36.9201C0.0587461 32.0845 1.01023 27.2959 2.86014 22.8281C4.71005 18.3603 7.42214 14.3008 10.8415 10.8815C14.2608 7.46218 18.3203 4.75009 22.7881 2.90018C27.2559 1.05027 32.0444 0.0987852 36.8801 0.100099" fill="#53AE94"/>
<path d="M41.43 32.0002V26.5302H54V18.1902H19.85V26.5302H32.37V32.0002C22.19 32.4602 14.54 34.4802 14.54 36.9002C14.54 39.3202 22.2 41.3302 32.37 41.8002V59.3502H41.43V41.8102C51.59 41.3402 59.23 39.3202 59.23 36.9102C59.23 34.5002 51.59 32.4802 41.43 32.0102M41.43 40.3202C41.18 40.3202 39.86 40.4102 36.94 40.4102C34.6 40.4102 32.94 40.3502 32.38 40.3202C23.38 39.9202 16.67 38.3202 16.67 36.4802C16.67 34.6402 23.38 33.0502 32.38 32.6502V38.7602C32.97 38.7602 34.65 38.9002 36.98 38.9002C39.77 38.9002 41.17 38.7902 41.43 38.7602V32.6502C50.43 33.0502 57.11 34.6502 57.11 36.4802C57.11 38.3102 50.41 39.9202 41.43 40.3202" fill="white"/>
</svg>
